<?xml version="1.0" standalone="no"?>
<!DOCTYPE svg PUBLIC "-//W3C//DTD SVG 20010904//EN"
 "http://www.w3.org/TR/2001/REC-SVG-20010904/DTD/svg10.dtd">
<svg version="1.0" xmlns="http://www.w3.org/2000/svg"
 width="534.000000pt" height="534.000000pt" viewBox="0 0 534.000000 534.000000"
 preserveAspectRatio="xMidYMid meet">
<metadata>
Created by potrace 1.14, written by Peter Selinger 2001-2017
</metadata>
<g transform="translate(0.000000,534.000000) scale(0.100000,-0.100000)"
fill="#000000" stroke="none">
<path d="M2427 4188 c-90 -44 -180 -177 -247 -365 -62 -173 -118 -465 -135
-693 -4 -47 -8 -110 -11 -140 -5 -73 -6 -423 0 -529 8 -143 32 -348 51 -441 3
-14 8 -38 11 -55 3 -16 10 -50 15 -75 6 -25 12 -54 15 -65 2 -11 19 -69 39
-128 128 -395 311 -533 480 -362 40 41 105 148 145 240 18 42 38 74 44 72 6
-2 24 -29 41 -59 152 -281 337 -242 478 102 52 126 115 375 133 530 3 25 9 74
14 110 9 70 5 783 -4 840 -3 19 -8 51 -12 70 -3 19 -7 44 -8 55 -2 11 -8 45
-15 75 -6 30 -13 64 -15 75 -16 83 -76 287 -89 303 -5 6 -7 12 -3 12 4 0 0 10
-9 23 -8 13 -12 27 -8 30 3 4 1 7 -5 7 -7 0 -11 4 -9 8 3 12 -45 102 -55 102
-4 0 -8 6 -8 13 -1 13 -51 65 -90 90 -30 21 -105 22 -141 3 -47 -24 -90 -70
-146 -155 -57 -87 -67 -90 -78 -29 -3 12 -9 26 -15 32 -5 5 -10 18 -10 27 0
10 -3 19 -8 21 -4 2 -22 33 -41 71 -19 37 -38 67 -42 67 -5 0 -9 6 -9 13 0 19
-86 96 -125 113 -43 18 -78 15 -128 -8z m298 -387 c85 -39 88 -53 41 -225 -35
-133 -67 -321 -84 -501 -14 -160 -5 -775 13 -804 1 -4 6 -31 9 -62 4 -31 8
-66 11 -77 2 -11 6 -37 9 -58 4 -22 11 -55 16 -74 5 -19 11 -46 14 -60 8 -40
47 -183 53 -193 6 -10 -72 -88 -81 -80 -3 4 -6 2 -6 -3 0 -14 -71 -17 -103 -5
-29 11 -107 89 -107 107 0 7 -3 14 -7 16 -17 7 -122 268 -108 268 2 0 -1 15
-6 33 -5 17 -11 43 -14 57 -3 14 -7 36 -10 50 -3 14 -8 45 -11 70 -3 25 -7 56
-10 70 -25 154 -25 641 1 790 2 14 6 43 9 65 8 75 47 250 72 323 36 108 81
193 127 244 69 73 100 82 172 49z m561 -360 c38 -37 90 -121 87 -141 -1 -3 2
-9 7 -15 6 -8 16 -42 35 -125 1 -3 5 -27 10 -55 4 -27 10 -59 13 -70 2 -11 6
-135 7 -275 3 -286 -11 -421 -60 -565 -79 -236 -174 -274 -275 -110 -14 22
-25 42 -26 45 0 3 -4 14 -8 25 -18 48 -26 72 -30 95 -2 14 -9 52 -15 85 -17
98 -22 169 -22 380 -1 341 22 486 101 645 59 117 113 142 176 81z"/>
<path d="M2056 4035 c-8 -9 -19 -16 -23 -17 -25 -4 -43 -11 -43 -17 0 -4 -16
-13 -35 -21 -19 -8 -35 -17 -35 -21 0 -4 -11 -10 -25 -13 -14 -4 -25 -11 -25
-17 0 -6 -4 -7 -10 -4 -5 3 -10 2 -10 -2 0 -5 -18 -19 -40 -33 -22 -14 -40
-28 -40 -32 0 -5 -4 -8 -10 -8 -10 0 -28 -14 -103 -80 -158 -138 -318 -364
-385 -540 -31 -84 -71 -221 -80 -280 -11 -65 -9 -371 2 -422 3 -16 8 -38 10
-50 14 -68 30 -125 46 -163 11 -26 22 -59 20 -63 0 -1 6 -15 14 -30 8 -15 24
-47 36 -72 32 -71 107 -198 134 -226 6 -6 27 -31 46 -55 102 -126 262 -261
421 -356 82 -49 169 -95 169 -88 0 2 -17 21 -37 44 -64 68 -87 95 -107 126
-11 17 -24 35 -30 42 -23 26 -32 39 -39 53 -4 8 -16 29 -27 45 -11 17 -23 38
-26 48 -4 9 -11 17 -16 17 -5 0 -6 5 -3 10 3 6 1 10 -5 10 -6 0 -8 5 -5 10 3
6 1 10 -5 10 -6 0 -8 5 -5 10 3 6 1 10 -6 10 -7 0 -10 3 -6 6 3 3 -4 22 -15
42 -11 20 -21 43 -23 52 -2 8 -15 43 -29 77 -13 35 -22 63 -19 63 3 0 0 7 -7
15 -7 8 -9 15 -6 15 4 0 2 9 -4 19 -5 11 -13 37 -16 58 -3 21 -8 41 -10 44 -2
3 -6 21 -9 40 -3 19 -8 45 -10 59 -15 76 -21 113 -30 195 -7 60 -6 324 0 386
24 218 83 445 160 620 77 175 157 298 292 448 30 33 40 51 29 51 -3 0 -11 -7
-20 -15z"/>
<path d="M3722 3117 c-30 -33 -48 -75 -62 -142 -14 -68 -20 -341 -9 -395 5
-19 11 -50 14 -69 3 -19 18 -60 33 -90 22 -45 32 -57 55 -59 31 -4 46 9 69 58
62 132 71 484 16 617 -6 16 -11 31 -10 36 1 4 -3 7 -10 7 -6 0 -9 3 -5 6 9 9
-27 44 -50 49 -13 2 -29 -5 -41 -18z"/>
</g>
</svg>
